<svg width="40" height="40" viewBox="0 0 40 40" fill="none" xmlns="http://www.w3.org/2000/svg">
<path d="M30.999 34C30.999 34.8285 31.2928 35.5353 31.8783 36.1207C32.4637 36.7068 33.1711 37 33.9999 37C34.8274 37 35.5348 36.7068 36.1203 36.1207C36.7063 35.5353 36.9995 34.8285 36.9995 34C36.9995 33.1716 36.7066 32.4648 36.1203 31.8787C35.5348 31.2933 34.8274 31.0001 33.9999 31.0001C33.1711 31.0001 32.4637 31.2933 31.8783 31.8787C31.2928 32.4648 30.999 33.1716 30.999 34Z" fill="#77529E"/>
<path d="M39.554 7.44505C39.257 7.14813 38.9057 6.99963 38.4993 6.99963H10.3515C10.3356 6.89037 10.3005 6.69131 10.2458 6.40227C10.1912 6.11307 10.1483 5.88272 10.117 5.71066C10.0856 5.53934 10.0273 5.33215 9.94119 5.08999C9.85525 4.84766 9.7537 4.65606 9.63656 4.51577C9.51958 4.37474 9.36337 4.25399 9.16799 4.15211C8.97278 4.0509 8.74999 4 8.50011 4H2.50027C2.09376 4 1.74225 4.14875 1.44542 4.44525C1.1485 4.74209 1 5.09384 1 5.50002C1 5.9062 1.1485 6.25779 1.44542 6.55463C1.7425 6.85154 2.09409 6.99988 2.50027 6.99988H7.28092L11.4291 26.289C11.398 26.3513 11.2379 26.6479 10.9487 27.1795C10.6596 27.711 10.4292 28.1756 10.2575 28.574C10.0857 28.9729 9.99972 29.2813 9.99972 29.4999C9.99972 29.9061 10.1482 30.2577 10.445 30.5551C10.7422 30.8511 11.0936 31.0001 11.4999 31.0001H12.9999H33.9996H35.4986C35.9048 31.0001 36.2565 30.8512 36.5532 30.5551C36.8504 30.2578 36.9987 29.9061 36.9987 29.4999C36.9987 29.0936 36.8504 28.742 36.5532 28.4453C36.2566 28.1486 35.9049 27.9997 35.4986 27.9997H13.937C14.3121 27.2496 14.4996 26.7501 14.4996 26.5001C14.4996 26.3434 14.4801 26.1714 14.4409 25.9843C14.4018 25.7972 14.355 25.5899 14.3003 25.363C14.2456 25.1371 14.2106 24.969 14.195 24.8595L38.664 22.0003C39.0542 21.9531 39.3747 21.7857 39.6247 21.4962C39.8747 21.2074 39.9994 20.8755 39.9994 20.5002V8.50015C39.9993 8.09397 39.8512 7.74238 39.554 7.44505Z" fill="#77529E"/>
<path d="M10 34C10 34.8285 10.2928 35.5353 10.8789 36.1207C11.4651 36.7068 12.1718 37 13.0001 37C13.828 37 14.5351 36.7068 15.1209 36.1207C15.7069 35.5353 16.0001 34.8285 16.0001 34C16.0001 33.1716 15.7072 32.4648 15.1209 31.8787C14.535 31.2933 13.828 31.0001 13.0001 31.0001C12.1718 31.0001 11.4647 31.2933 10.8789 31.8787C10.2931 32.4648 10 33.1716 10 34Z" fill="#77529E"/>
</svg>
