<svg width="40" height="40" viewBox="0 0 40 40" fill="none" xmlns="http://www.w3.org/2000/svg">
<g clip-path="url(#clip0)">
<path d="M16.7728 31.4709C14.833 31.4709 13.2549 33.0491 13.2549 34.9888C13.2549 36.9286 14.833 38.5067 16.7728 38.5067C18.7125 38.5067 20.2907 36.9286 20.2907 34.9888C20.2906 33.0491 18.7125 31.4709 16.7728 31.4709ZM16.7728 36.5424C15.9161 36.5424 15.2191 35.8453 15.2191 34.9887C15.2191 34.132 15.9161 33.435 16.7728 33.435C17.6294 33.435 18.3265 34.132 18.3265 34.9887C18.3265 35.8455 17.6294 36.5424 16.7728 36.5424Z" fill="#7436A0"/>
<path d="M29.1116 31.4709C27.1719 31.4709 25.5938 33.0491 25.5938 34.9888C25.5938 36.9286 27.1719 38.5067 29.1116 38.5067C31.0514 38.5067 32.6295 36.9286 32.6295 34.9888C32.6295 33.0491 31.0513 31.4709 29.1116 31.4709ZM29.1116 36.5424C28.2549 36.5424 27.558 35.8453 27.558 34.9887C27.558 34.132 28.255 33.435 29.1116 33.435C29.9684 33.435 30.6653 34.132 30.6653 34.9887C30.6653 35.8455 29.9683 36.5424 29.1116 36.5424Z" fill="#7436A0"/>
<path d="M29.9782 12.9497H15.904C15.3616 12.9497 14.9219 13.3894 14.9219 13.9318C14.9219 14.4742 15.3616 14.9139 15.904 14.9139H29.9782C30.5206 14.9139 30.9603 14.4742 30.9603 13.9318C30.9603 13.3893 30.5206 12.9497 29.9782 12.9497Z" fill="#7436A0"/>
<path d="M29.2117 18.0496H16.6696C16.1272 18.0496 15.6875 18.4892 15.6875 19.0317C15.6875 19.5741 16.1272 20.0138 16.6696 20.0138H29.2116C29.754 20.0138 30.1937 19.5741 30.1937 19.0317C30.1937 18.4893 29.754 18.0496 29.2117 18.0496Z" fill="#7436A0"/>
<path d="M39.558 8.57365C39.1835 8.11396 38.6285 7.85037 38.0354 7.85037H7.44365L6.82583 4.85122C6.69685 4.22559 6.27013 3.70028 5.68411 3.44583L1.3734 1.57473C0.87574 1.35856 0.29738 1.58692 0.0815197 2.08442C-0.134575 2.58207 0.0937854 3.16051 0.591208 3.37637L4.902 5.24755L9.65404 28.3149C9.84123 29.2233 10.6503 29.8827 11.5779 29.8827H35.1065C35.6489 29.8827 36.0886 29.443 36.0886 28.9006C36.0886 28.3581 35.6489 27.9185 35.1065 27.9185H11.578L10.9999 25.1125H35.2884C36.2159 25.1125 37.025 24.4531 37.2122 23.5447L39.9593 10.2107C40.0789 9.63006 39.9326 9.03326 39.558 8.57365ZM35.2884 23.1484H10.5953L7.84834 9.81451L38.0354 9.81459L35.2884 23.1484Z" fill="#7436A0"/>
</g>
<defs>
<clipPath id="clip0">
<rect width="40" height="40" fill="white"/>
</clipPath>
</defs>
</svg>
