<?xml version="1.0" encoding="utf-8"?>
<!-- Generator: Adobe Illustrator 22.0.0, SVG Export Plug-In . SVG Version: 6.00 Build 0)  -->
<svg version="1.1" id="Layer_1" xmlns="http://www.w3.org/2000/svg" xmlns:xlink="http://www.w3.org/1999/xlink" x="0px" y="0px"
	 viewBox="0 0 32 32" enable-background="new 0 0 32 32" xml:space="preserve">
<path fill="#FFFFFF" d="M16,0C7.2,0,0,7.2,0,16c0,8.8,7.2,16,16,16s16-7.2,16-16C32,7.2,24.8,0,16,0z M20.7,10L19,10
	c-1.3,0-1.6,0.6-1.6,1.6v2h3.2l-0.4,3.2h-2.8V25h-3.3v-8.2h-2.8v-3.2h2.8v-2.4c0-2.7,1.7-4.2,4.1-4.2c1.2,0,2.2,0.1,2.5,0.1V10z"/>
</svg>
