<svg xmlns="http://www.w3.org/2000/svg" viewBox="0 0 80 80" width="30" height="30"><path fill="#8bb7f0" d="M8,65.5c-3.033,0-5.5-2.467-5.5-5.5V20c0-3.033,2.467-5.5,5.5-5.5h64c3.033,0,5.5,2.467,5.5,5.5v40 c0,3.033-2.467,5.5-5.5,5.5H8z"/><path fill="#4e7ab5" d="M72,15c2.757,0,5,2.243,5,5v40c0,2.757-2.243,5-5,5H8c-2.757,0-5-2.243-5-5V20c0-2.757,2.243-5,5-5 H72 M72,14H8c-3.314,0-6,2.686-6,6v40c0,3.314,2.686,6,6,6h64c3.314,0,6-2.686,6-6V20C78,16.686,75.314,14,72,14L72,14z"/><path fill="#fff" d="M36.51 32l-4.226 9.366L28.078 32h-5.39v13.452L16.682 32h-4.548L6 45.962h3.63l1.342-3.116h6.864l1.364 3.116h6.93v-10.37l4.598 10.37h3.126l4.702-10.19v10.19H42V32H36.51zM12.27 39.83l2.052-4.88 2.132 4.88H12.27zM67.766 38.826L74 32.036h-4.434l-3.988 4.328L61.72 32H48v13.964h13.27l4.184-4.622L69.534 46h4.42L67.766 38.826zM59.456 43.032h-8.022V40.27h7.676v-2.646h-7.676v-2.616l8.468.024 3.386 3.794L59.456 43.032z"/></svg>