<?xml version="1.0" encoding="utf-8"?>
<!-- Generator: Adobe Illustrator 22.0.0, SVG Export Plug-In . SVG Version: 6.00 Build 0)  -->
<svg version="1.1" id="Layer_1" xmlns="http://www.w3.org/2000/svg" xmlns:xlink="http://www.w3.org/1999/xlink" x="0px" y="0px"
	 viewBox="0 0 32 32" enable-background="new 0 0 32 32" xml:space="preserve">
<g>
	<path fill="#FFFFFF" d="M16,0C7.2,0,0,7.2,0,16s7.2,16,16,16s16-7.2,16-16S24.8,0,16,0z M24,20.5c0,1.9-1.6,3.5-3.5,3.5h-9
		C9.6,24,8,22.4,8,20.5v-9C8,9.6,9.6,8,11.5,8h9c1.9,0,3.5,1.6,3.5,3.5V20.5z"/>
	<circle fill="#FFFFFF" cx="21" cy="11" r="1"/>
	<path fill="#FFFFFF" d="M16,11c-2.8,0-5,2.2-5,5s2.2,5,5,5s5-2.2,5-5S18.8,11,16,11z M16,20c-2.2,0-4-1.8-4-4s1.8-4,4-4
		c2.2,0,4,1.8,4,4S18.2,20,16,20z"/>
</g>
</svg>
