<svg width="487" height="491" viewBox="0 0 487 491" fill="none" xmlns="http://www.w3.org/2000/svg">
<path d="M379.587 10.0205C389.873 11.8424 400.068 14.1198 409.353 19.3122C436.843 34.7071 452.227 58.3917 456.05 89.455C459.6 118.15 449.951 143.201 433.475 166.066C422.006 182.007 408.624 196.309 393.969 209.336C366.934 233.293 339.625 256.796 312.317 280.48C305.217 286.584 298.481 286.675 291.562 280.572C260.158 253.061 228.571 225.915 197.712 197.858C181.327 182.918 167.309 165.701 157.387 145.569C135.813 101.662 148.739 48.3713 189.156 22.5005C198.714 16.3971 209.182 12.5712 220.378 10.9315C221.562 10.7493 222.745 10.3849 223.838 10.1116C229.026 10.1116 234.124 10.1116 239.312 10.1116C240.041 10.3849 240.678 10.7493 241.406 10.8404C258.064 13.1177 272.355 20.4053 284.371 31.8832C290.743 37.9866 296.296 45.0008 302.304 51.7418C303.396 50.1932 304.579 48.4624 305.763 46.7316C316.504 31.8832 329.703 20.2231 347.363 14.302C352.824 12.4801 358.468 11.478 364.021 10.1116C369.3 10.0205 374.398 10.0205 379.587 10.0205Z" fill="#3C3C3B"/>
<path d="M93.7588 476.425C93.7588 421.677 93.7588 366.838 93.7588 311.361C105.046 310.45 111.054 304.256 121.977 300.612C127.439 298.79 133.72 298.244 139.364 297.424C144.826 296.695 150.196 296.149 155.658 295.875C165.489 295.329 175.411 295.693 185.242 296.695C194.345 297.606 203.448 299.155 212.368 300.977C220.379 302.525 228.48 304.347 236.491 306.442C240.587 307.535 244.683 308.72 248.689 309.995C252.512 311.27 255.88 312.455 259.976 312.455C282.278 312.546 304.58 312.363 326.882 312.546C346.817 312.728 359.834 330.765 353.371 349.166C349.457 360.279 339.17 367.111 326.062 367.202C299.209 367.294 272.356 367.202 245.503 367.202C232.303 367.202 221.289 372.213 212.914 382.506C207.453 389.156 207.817 397.355 213.734 402.456C219.651 407.557 227.752 406.829 233.487 400.361C237.219 396.171 241.588 394.531 247.141 394.531C276.088 394.622 305.126 394.622 334.073 394.531C344.723 394.531 353.371 390.523 360.107 382.051C382.864 353.629 405.712 325.299 428.469 296.877C435.478 288.132 444.308 283.669 455.504 285.764C467.247 287.95 474.438 295.329 477.26 306.898C477.351 307.262 477.715 307.627 477.988 307.991C477.988 310.997 477.988 314.094 477.988 317.1C475.712 321.655 474.074 326.574 471.161 330.765C445.855 367.749 420.367 404.733 394.789 441.627C386.141 454.107 374.853 463.763 360.653 469.32C352.734 472.417 344.177 474.239 335.984 476.607C255.151 476.425 174.501 476.425 93.7588 476.425Z" fill="#3C3C3B"/>
<path d="M11.834 322.475C15.3841 314.55 21.665 311.999 30.1306 312.363C42.0553 312.819 53.98 312.455 66.4508 312.455C66.4508 367.385 66.4508 421.859 66.4508 476.425C51.6132 476.425 36.6846 476.425 21.8471 476.425C17.3867 474.239 14.0187 470.868 11.834 466.404C11.834 418.398 11.834 370.482 11.834 322.475Z" fill="#3C3C3B"/>
</svg>
