<svg width="481" height="481" viewBox="0 0 481 481" fill="none" xmlns="http://www.w3.org/2000/svg">
<g clip-path="url(#clip0)">
<path d="M429.706 203.673H270.845V239.561H429.706V203.673Z" fill="#3C3C3B"/>
<path d="M458.547 84.6448H389.873C385.739 84.6448 382.357 88.0268 382.357 92.0665C382.357 96.2001 385.739 99.4881 389.873 99.4881H458.547C462.681 99.4881 466.063 102.87 466.063 106.91V134.342H285.782V99.5821H340.082C344.216 99.5821 347.598 96.2 347.598 92.1604C347.598 88.0268 344.216 84.7387 340.082 84.7387H285.782V59.3735C285.782 46.9727 275.729 36.9206 263.329 36.9206H239.936V25.3653C239.936 12.9645 229.884 2.91235 217.483 2.91235H68.1104C55.8975 3.0063 45.8453 13.0584 45.8453 25.3653V36.8266H22.4529C10.0521 36.8266 0 46.8788 0 59.2795V193.715C0 197.849 3.38203 201.137 7.42168 201.137C11.4613 201.137 14.8434 197.755 14.8434 193.715V59.2795C14.8434 55.1459 18.2254 51.7639 22.265 51.7639H45.6574V172.296H35.3234C31.1898 172.296 27.8078 175.678 27.8078 179.717C27.8078 183.757 31.1898 187.139 35.3234 187.139H250.458C254.592 187.139 257.974 183.757 257.974 179.717C257.974 175.678 254.592 172.296 250.458 172.296H240.03V51.7639H263.423C267.556 51.7639 270.938 55.1459 270.938 59.2795V455.635C270.938 459.768 267.556 463.15 263.423 463.15H22.4529C18.3193 463.15 15.0312 459.768 15.0312 455.635V247.452C15.0312 243.318 11.6492 240.03 7.60957 240.03C3.56992 240.03 0.0939453 243.412 0.0939453 247.452V455.635C0.0939453 468.036 10.1461 478.088 22.5469 478.088H263.517C275.917 478.088 285.97 468.036 285.97 455.635V302.786H458.735C471.136 302.786 481.188 292.734 481.188 280.333V107.098C481 94.6969 470.948 84.6448 458.547 84.6448ZM60.7826 172.296V25.3653C60.7826 21.2317 64.1646 17.9436 68.2043 17.9436H217.577C221.711 17.9436 224.999 21.3256 224.999 25.4592V172.39L60.7826 172.296ZM466.063 149.373V174.269H285.782V149.373H466.063ZM458.547 287.848H285.782V189.206H466.063V280.333C466.063 284.466 462.681 287.848 458.547 287.848Z" fill="#3C3C3B"/>
<path d="M421.72 255.907H326.178C322.044 255.907 318.662 259.289 318.662 263.423C318.662 267.556 322.044 270.938 326.178 270.938H421.814C425.948 270.938 429.33 267.556 429.33 263.423C429.33 259.289 425.854 255.907 421.72 255.907Z" fill="#3C3C3B"/>
<path d="M253.934 280.333V226.596C253.934 214.195 243.882 204.143 231.481 204.143H54.3006C41.8998 204.143 31.8477 214.195 31.8477 226.596V280.333C31.8477 292.734 41.8998 302.786 54.3006 302.786H231.575C243.882 302.786 253.934 292.734 253.934 280.333ZM238.997 280.333C238.997 284.466 235.615 287.848 231.575 287.848H54.3006C50.167 287.848 46.785 284.466 46.785 280.333V226.596C46.785 222.463 50.167 219.174 54.3006 219.174H231.575C235.709 219.174 238.997 222.556 238.997 226.596V280.333Z" fill="#3C3C3B"/>
<path d="M71.2105 325.615C55.052 325.615 41.8057 338.767 41.8057 355.019C41.8057 371.178 54.958 384.424 71.2105 384.424C87.4631 384.424 100.615 371.272 100.615 355.019C100.615 338.861 87.3691 325.615 71.2105 325.615ZM71.2105 369.487C63.2252 369.487 56.743 363.005 56.743 355.019C56.743 347.034 63.2252 340.552 71.2105 340.552C79.1959 340.552 85.6781 347.034 85.6781 355.019C85.6781 363.005 79.1959 369.487 71.2105 369.487Z" fill="#3C3C3B"/>
<path d="M214.571 325.615C198.412 325.615 185.166 338.767 185.166 355.019C185.166 371.178 198.318 384.424 214.571 384.424C230.823 384.424 243.976 371.272 243.976 355.019C243.976 338.861 230.823 325.615 214.571 325.615ZM214.571 369.487C206.586 369.487 200.103 363.005 200.103 355.019C200.103 347.034 206.586 340.552 214.571 340.552C222.556 340.552 229.038 347.034 229.038 355.019C229.038 363.005 222.556 369.487 214.571 369.487Z" fill="#3C3C3B"/>
<path d="M142.891 325.615C126.733 325.615 113.486 338.767 113.486 355.019C113.486 371.178 126.639 384.424 142.891 384.424C159.05 384.424 172.296 371.272 172.296 355.019C172.296 338.861 159.144 325.615 142.891 325.615ZM142.891 369.487C134.906 369.487 128.424 363.005 128.424 355.019C128.424 347.034 134.906 340.552 142.891 340.552C150.877 340.552 157.359 347.034 157.359 355.019C157.359 363.005 150.877 369.487 142.891 369.487Z" fill="#3C3C3B"/>
<path d="M71.2105 393.349C55.052 393.349 41.8057 406.501 41.8057 422.754C41.8057 438.912 54.958 452.159 71.2105 452.159C87.4631 452.159 100.615 439.006 100.615 422.754C100.615 406.501 87.3691 393.349 71.2105 393.349ZM71.2105 437.221C63.2252 437.221 56.743 430.739 56.743 422.754C56.743 414.769 63.2252 408.286 71.2105 408.286C79.1959 408.286 85.6781 414.769 85.6781 422.754C85.6781 430.739 79.1959 437.221 71.2105 437.221Z" fill="#3C3C3B"/>
<path d="M214.571 393.349C198.412 393.349 185.166 406.501 185.166 422.754C185.166 438.912 198.318 452.159 214.571 452.159C230.823 452.159 243.976 439.006 243.976 422.754C243.976 406.501 230.823 393.349 214.571 393.349ZM214.571 437.221C206.586 437.221 200.103 430.739 200.103 422.754C200.103 414.769 206.586 408.286 214.571 408.286C222.556 408.286 229.038 414.769 229.038 422.754C229.038 430.739 222.556 437.221 214.571 437.221Z" fill="#3C3C3B"/>
<path d="M142.891 393.349C126.733 393.349 113.486 406.501 113.486 422.754C113.486 438.912 126.639 452.159 142.891 452.159C159.05 452.159 172.296 439.006 172.296 422.754C172.296 406.501 159.144 393.349 142.891 393.349ZM142.891 437.221C134.906 437.221 128.424 430.739 128.424 422.754C128.424 414.769 134.906 408.286 142.891 408.286C150.877 408.286 157.359 414.769 157.359 422.754C157.359 430.739 150.877 437.221 142.891 437.221Z" fill="#3C3C3B"/>
<path d="M95.073 51.7639H150.877C155.01 51.7639 158.298 48.3819 158.298 44.2483C158.298 40.1147 154.916 36.7327 150.877 36.7327H95.073C90.9394 36.7327 87.6514 40.1147 87.6514 44.2483C87.6514 48.3819 90.9394 51.7639 95.073 51.7639Z" fill="#3C3C3B"/>
<path d="M190.709 84.6448H95.073C90.9394 84.6448 87.6514 88.0268 87.6514 92.0665C87.6514 96.2 91.0334 99.4881 95.073 99.4881H190.709C194.843 99.4881 198.131 96.1061 198.131 92.0665C198.131 88.0268 194.843 84.6448 190.709 84.6448Z" fill="#3C3C3B"/>
<path d="M190.709 134.436H95.073C90.9394 134.436 87.6514 137.818 87.6514 141.857C87.6514 145.991 91.0334 149.279 95.073 149.279H190.709C194.843 149.279 198.131 145.897 198.131 141.857C198.131 137.818 194.843 134.436 190.709 134.436Z" fill="#3C3C3B"/>
</g>
<defs>
<clipPath id="clip0">
<rect width="481" height="481" fill="white"/>
</clipPath>
</defs>
</svg>
