<svg width="499" height="499" viewBox="0 0 499 499" fill="none" xmlns="http://www.w3.org/2000/svg">
<g clip-path="url(#clip0)">
<path d="M160.451 344.36C143.169 344.36 129.111 358.42 129.111 375.702C129.111 392.989 143.169 407.046 160.451 407.046C177.736 407.046 191.794 392.989 191.794 375.702C191.794 358.42 177.736 344.36 160.451 344.36Z" fill="#3C3C3B"/>
<path d="M393.344 344.36C376.063 344.36 362.005 358.42 362.005 375.702C362.005 392.989 376.063 407.046 393.344 407.046C410.63 407.046 424.687 392.989 424.687 375.702C424.687 358.42 410.63 344.36 393.344 344.36Z" fill="#3C3C3B"/>
<path d="M471.735 229.78L471.599 189.872C471.567 180.724 464.144 173.321 454.993 173.321H430.08L415.965 229.78H471.735Z" fill="#3C3C3B"/>
<path d="M416.406 112.161C417.5 107.243 416.3 102.097 413.15 98.1704C409.997 94.2405 405.232 91.9539 400.195 91.9539H139.905C132.119 91.9539 125.38 97.3589 123.695 104.958L120.494 119.354H85.1039C75.9337 119.354 68.4974 126.788 68.4974 135.958C68.4974 145.128 75.9337 152.565 85.1039 152.565H113.112L105.272 187.851H44.0061C34.8326 187.851 27.3996 195.289 27.3996 204.457C27.3996 213.629 34.8326 221.064 44.0061 221.064H97.893L90.0502 256.352H16.6065C7.43628 256.352 0 263.788 0 272.958C0 282.128 7.43628 289.565 16.6065 289.565H82.6693L68.8939 351.553C67.8035 356.469 68.9998 361.617 72.15 365.545C75.302 369.475 80.0668 371.76 85.1039 371.76H96.0298C98.0745 337.995 126.183 311.151 160.451 311.151C194.721 311.151 222.83 337.995 224.876 371.76H328.923C330.407 347.314 345.553 326.501 366.809 316.874L416.406 112.161Z" fill="#3C3C3B"/>
<path d="M495.858 262.822C493.457 259.495 489.939 257.227 486.018 256.35H409.325L395.611 311.203C428.765 312.352 455.641 338.618 457.753 371.527C463.616 370.532 468.754 366.419 470.757 360.381L498.158 277.767C499.833 272.703 498.98 267.147 495.858 262.822Z" fill="#3C3C3B"/>
</g>
<defs>
<clipPath id="clip0">
<rect width="499" height="499" fill="white"/>
</clipPath>
</defs>
</svg>
